<?xml version="1.0" standalone="no"?>
<!DOCTYPE svg PUBLIC "-//W3C//DTD SVG 20010904//EN"
 "http://www.w3.org/TR/2001/REC-SVG-20010904/DTD/svg10.dtd">
<svg version="1.0" xmlns="http://www.w3.org/2000/svg"
 width="1600.000000pt" height="1132.000000pt" viewBox="0 0 1600.000000 1132.000000"
 preserveAspectRatio="xMidYMid meet">
<metadata>
Created by potrace 1.16, written by Peter Selinger 2001-2019
</metadata>
<g transform="translate(0.000000,1132.000000) scale(0.100000,-0.100000)"
fill="#000000" stroke="none">
<path d="M7490 8911 l0 -951 -1011 0 -1011 0 28 -47 c15 -27 37 -65 49 -85 11
-20 59 -103 106 -185 48 -81 111 -190 140 -240 l54 -93 545 0 c300 0 670 -3
823 -7 l277 -6 0 -287 0 -286 -37 -33 c-235 -207 -582 -553 -689 -686 -88
-110 -214 -281 -214 -290 0 -4 -11 -21 -24 -38 -53 -71 -186 -323 -186 -352 0
-8 -4 -15 -9 -15 -10 0 -54 -114 -106 -274 -136 -415 -137 -852 -3 -1226 129
-359 388 -670 733 -880 97 -60 304 -157 403 -191 l82 -28 0 490 0 490 -66 92
c-183 255 -258 559 -209 843 31 176 80 322 165 489 73 143 135 245 150 245 7
0 10 -502 10 -1398 l0 -1399 103 -85 c56 -47 118 -99 137 -117 19 -17 40 -31
47 -31 12 0 79 58 205 179 l67 64 1 586 c0 322 3 1104 6 1736 5 969 9 1152 20
1161 88 70 424 399 484 473 19 24 40 48 45 55 34 36 100 133 145 210 74 128
127 260 158 391 l27 115 577 0 c544 0 576 1 571 18 -2 9 -53 157 -112 327
l-108 310 -451 3 c-249 1 -452 4 -452 7 0 57 -83 592 -100 650 -6 17 -28 118
-51 225 -23 107 -45 199 -49 203 -4 5 -8 -9 -8 -30 -1 -33 -40 -236 -86 -444
-32 -144 -128 -441 -177 -545 l-29 -64 -195 0 -195 0 0 808 0 808 -282 139
c-156 76 -286 140 -290 142 -5 2 -8 -424 -8 -946z"/>
<path d="M8663 6312 c-3 -224 -46 -347 -211 -600 -142 -220 -188 -322 -222
-489 -35 -175 -28 -373 25 -708 8 -53 35 -170 60 -260 15 -55 31 -113 35 -130
8 -34 7 -37 30 75 22 106 115 394 164 510 13 30 34 80 46 110 13 30 80 170
151 310 178 354 192 397 192 570 0 93 -5 134 -26 210 -35 128 -137 356 -224
497 l-19 32 -1 -127z"/>
<path d="M5290 4465 c0 -945 4 -1525 9 -1525 59 0 519 -43 706 -66 66 -8 140
-17 165 -20 336 -38 788 -190 1303 -437 97 -47 175 -82 172 -78 -4 8 -54 39
-243 155 -596 365 -995 507 -1787 638 l-140 23 -3 1304 c-1 718 -6 1307 -11
1310 -4 3 -43 54 -85 114 -43 59 -79 107 -82 107 -2 0 -4 -686 -4 -1525z"/>
<path d="M10160 5894 c-36 -48 -75 -102 -87 -120 l-23 -33 -2 -1298 -3 -1298
-195 -31 c-191 -31 -567 -110 -665 -141 -297 -91 -409 -135 -660 -263 -201
-102 -389 -210 -522 -299 -34 -22 -66 -41 -70 -41 -9 0 -61 -39 -52 -40 3 0
75 33 160 74 187 89 502 227 584 254 33 12 92 32 131 46 151 54 489 131 659
151 28 3 88 10 135 15 101 12 468 46 593 56 l87 6 0 1524 c0 838 -1 1524 -3
1524 -1 0 -31 -39 -67 -86z"/>
<path d="M4990 4155 l0 -1528 273 7 c323 8 868 -7 1057 -29 127 -15 171 -22
378 -59 97 -18 416 -99 617 -158 176 -51 300 -87 323 -94 26 -8 -166 85 -218
106 -25 10 -70 29 -100 43 -326 151 -970 312 -1381 346 -63 6 -229 19 -369 30
-140 12 -288 24 -327 27 l-73 6 0 1296 -1 1297 -85 115 c-47 63 -88 117 -90
119 -2 2 -4 -683 -4 -1524z"/>
<path d="M10447 5563 l-87 -118 0 -1301 0 -1302 -97 -6 c-603 -42 -772 -60
-1098 -117 -317 -55 -733 -179 -990 -294 -212 -95 -305 -139 -302 -142 2 -2
30 6 63 17 32 12 86 28 119 36 33 8 110 30 170 49 61 19 146 43 190 53 44 11
132 34 195 51 408 108 769 141 1543 141 l387 0 0 1525 c0 839 -1 1525 -3 1525
-1 0 -42 -53 -90 -117z"/>
<path d="M9020 5293 c-12 -61 -50 -197 -77 -273 -23 -67 -102 -213 -173 -320
-35 -52 -66 -97 -69 -100 -14 -11 -122 -189 -142 -236 -42 -94 -87 -241 -103
-334 -31 -177 -103 -309 -217 -398 -37 -28 -78 -56 -91 -63 -24 -10 -25 -16
-32 -131 -9 -183 -7 -708 3 -708 29 0 209 68 314 119 430 207 704 537 834
1001 41 148 48 213 48 460 0 220 -10 337 -36 434 -10 39 -21 78 -23 86 -29
109 -61 203 -89 263 -19 40 -38 84 -42 96 -7 24 -84 161 -90 161 -2 0 -9 -26
-15 -57z"/>
<path d="M4610 3780 l0 -1520 28 0 c15 0 68 7 117 15 134 22 389 53 485 59 47
3 164 11 260 17 227 16 754 16 1040 1 301 -17 430 -27 788 -63 167 -17 308
-29 315 -26 6 2 -25 13 -68 24 -44 12 -143 37 -220 57 -77 21 -230 54 -340 76
-317 61 -272 55 -675 95 -280 28 -604 38 -985 32 -203 -4 -394 -10 -422 -13
l-53 -7 0 1304 -1 1304 -122 83 c-67 45 -128 82 -135 82 -9 0 -12 -320 -12
-1520z"/>
<path d="M10773 5213 l-133 -88 0 -1300 0 -1300 -197 8 c-277 11 -962 1 -1163
-17 -91 -9 -203 -18 -250 -22 -71 -5 -387 -55 -535 -84 -22 -5 -68 -13 -103
-19 -35 -7 -116 -25 -180 -42 -64 -17 -157 -41 -207 -54 -49 -13 -101 -28
-115 -34 -29 -13 -40 -14 400 29 488 49 1057 75 1395 66 467 -13 658 -28 1033
-82 101 -14 185 -24 188 -22 2 3 3 689 2 1526 l-3 1522 -132 -87z"/>
</g>
</svg>
