<svg xmlns="http://www.w3.org/2000/svg" width="1218" height="861" viewBox="0 0 1218 861">
<g>
<path d="M 613.25,533.85 L 612.50,666.21 L 603.00,675.07 L 601.69,676.29 L 599.22,678.51 L 598.02,679.57 L 595.94,681.34 L 594.97,682.14 L 593.51,683.25 L 593.20,683.48 L 592.73,683.78 L 592.29,683.96 L 592.21,683.97 L 591.83,683.79 L 591.62,683.68 L 590.99,683.29 L 590.65,683.07 L 589.81,682.48 L 589.37,682.17 L 588.34,681.42 L 587.28,680.63 L 584.74,678.64 L 583.41,677.60 L 580.55,675.25 L 570.01,666.50 L 569.93,453.50 L 567.79,456.08 L 571.80,450.07 L 574.92,445.89 L 578.11,441.70 L 579.80,439.58 L 583.24,435.32 L 585.06,433.17 L 588.77,428.84 L 590.72,426.65 L 594.70,422.25 L 596.79,420.01 L 601.04,415.53 L 603.26,413.26 L 607.79,408.68 L 610.15,406.36 L 613.99,402.59 M 565.41,653.01 L 565.30,654.24 L 565.12,655.00 L 564.87,655.00 L 564.61,654.93 L 564.75,654.94 L 565.08,654.55 L 565.28,653.84 L 565.36,653.23 L 565.44,652.46 M 561.06,653.83 L 561.81,654.08 L 563.21,654.55 L 563.71,654.70 L 564.36,654.88 L 563.91,654.76 L 563.35,654.61 L 561.85,654.10 L 561.04,653.82 L 561.02,653.81 M 520.23,632.47 L 524.90,635.67 L 521.42,633.34 L 518.35,631.18 L 517.46,630.48 M 509.95,624.38 L 514.98,628.53 L 512.53,626.59 L 509.68,624.26 L 507.99,622.70 M 500.66,615.60 L 505.47,620.36 L 504.34,619.32 L 501.73,616.81 L 499.66,614.55 M 566.00,619.82 L 566.00,620.12 L 566.00,619.03 M 496.94,611.60 L 496.89,611.54 L 494.53,608.87 L 492.55,606.32 M 489.18,601.91 L 488.11,600.47 L 485.85,596.98 M 484.32,594.60 L 479.27,585.50 L 485.10,595.81 M 546.93,503.76 L 546.49,505.98 L 545.82,510.42 L 545.53,512.63 L 545.16,517.02 L 545.07,518.45 L 545.07,517.66 L 545.30,514.55 L 545.57,511.47 L 545.75,510.00 L 546.16,507.11 L 546.42,505.75 L 547.06,503.16 M 549.11,494.89 L 549.32,494.04 L 549.53,493.42 M 561.24,466.85 L 560.41,468.43 L 558.70,471.80 L 557.00,475.21 L 553.88,482.01 L 553.15,483.64 L 551.92,486.63 L 550.74,489.76 L 551.93,486.21 L 553.58,482.27 L 557.11,474.36 L 559.23,470.37 L 562.35,464.78 M 509.06,411.40 L 511.25,408.56 L 511.31,408.49 M 511.57,408.17 L 512.63,406.83 L 512.66,406.80 M 571.03,111.22 L 571.35,111.36 L 572.38,111.85 L 572.96,112.12 L 574.46,112.84 L 575.26,113.23 L 577.16,114.15 L 578.16,114.64 L 580.41,115.75 L 581.57,116.32 L 584.10,117.57 L 592.49,121.74 L 614.00,132.48 L 614.00,256.00 L 628.86,256.00 L 643.43,256.00 L 642.79,257.50 L 640.35,262.48 L 637.87,267.42 L 636.59,269.81 L 634.00,274.54 L 632.68,276.80 L 630.00,281.26 L 628.64,283.38 L 625.90,287.52 L 624.51,289.46 L 619.28,296.58 L 615.80,301.10 L 613.93,303.38 L 610.07,307.98 L 607.87,310.45 L 605.62,312.95 L 604.40,314.27 L 601.90,316.96 L 600.54,318.40 L 597.74,321.32 L 596.22,322.89 L 593.08,326.09 L 591.37,327.82 L 587.84,331.36 L 585.91,333.28 L 581.94,337.21 L 579.78,339.33 L 575.32,343.69 L 572.90,346.05 L 567.91,350.90 L 565.20,353.52 L 559.63,358.90 L 556.61,361.81 L 550.41,367.78 L 547.06,371.00 L 542.76,375.14 L 540.06,377.76 L 538.79,379.01 L 533.89,383.83 L 531.70,386.03 L 527.50,390.29 L 525.61,392.27 L 521.96,396.13 L 520.31,397.95 L 517.10,401.54 L 515.61,403.28 L 513.54,405.75 L 515.52,403.38 L 517.00,401.64 L 520.20,398.05 L 521.85,396.23 L 525.48,392.37 L 527.36,390.39 L 531.55,386.11 L 533.72,383.90 L 538.60,379.07 L 539.87,377.82 L 542.55,375.19 L 546.82,371.04 L 570.00,348.58 L 570.00,327.29 L 570.00,306.00 L 565.25,305.86 L 565.09,305.86 L 564.47,305.84 L 564.11,305.84 L 563.11,305.82 L 562.57,305.81 L 561.23,305.79 L 560.51,305.78 L 558.84,305.76 L 557.96,305.75 L 555.97,305.72 L 554.94,305.71 L 552.67,305.68 L 550.33,305.65 L 544.88,305.58 L 542.04,305.55 L 535.72,305.48 L 532.47,305.44 L 525.44,305.36 L 521.86,305.32 L 514.31,305.24 L 502.58,305.11 L 444.66,304.50 L 439.99,296.50 L 438.86,294.56 L 436.74,290.93 L 435.71,289.16 L 433.79,285.87 L 432.86,284.26 L 431.13,281.29 L 430.29,279.84 L 428.74,277.18 L 427.99,275.88 L 426.61,273.51 L 425.95,272.35 L 424.74,270.26 L 424.15,269.24 L 423.10,267.41 L 422.59,266.52 L 421.69,264.93 L 420.82,263.40 L 419.49,261.03 L 418.88,259.94 L 418.04,258.37 L 417.67,257.67 L 417.24,256.78 L 417.00,256.09 L 417.00,256.06 L 417.35,255.99 L 417.59,255.96 L 418.40,255.90 L 418.86,255.88 L 420.12,255.83 L 420.80,255.80 L 422.48,255.76 L 423.37,255.74 L 425.47,255.70 L 426.57,255.68 L 429.07,255.65 L 430.37,255.63 L 433.25,255.61 L 434.74,255.60 L 437.99,255.58 L 439.66,255.58 L 443.27,255.57 L 445.12,255.56 L 449.07,255.56 L 451.08,255.56 L 455.36,255.56 L 457.54,255.56 L 462.13,255.58 L 464.46,255.58 L 469.35,255.60 L 471.83,255.61 L 477.00,255.64 L 493.50,255.74 L 570.00,256.31 L 570.00,178.66 L 570.01,169.06 L 570.02,164.34 L 570.04,155.44 L 570.05,151.10 L 570.08,143.11 L 570.09,141.17 L 570.11,137.51 L 570.12,135.71 L 570.15,132.34 L 570.16,130.70 L 570.18,127.64 L 570.19,126.16 L 570.22,123.45 L 570.23,122.14 L 570.26,119.80 L 570.27,118.68 L 570.30,116.73 L 570.32,115.81 L 570.35,114.28 L 570.36,113.57 L 570.39,112.48 L 570.41,112.00 L 570.44,111.38 L 570.49,111.00 L 570.53,111.00 M 652.70,363.48 L 651.35,365.09 L 648.47,368.37 L 646.99,370.02 L 643.85,373.37 L 642.25,375.06 L 638.84,378.51 L 637.11,380.25 L 633.42,383.82 L 631.54,385.62 L 627.56,389.32 L 626.54,390.24 L 627.73,389.06 L 630.94,385.89 L 632.41,384.42 L 635.26,381.58 L 636.56,380.27 L 639.09,377.74 L 640.24,376.57 L 642.47,374.31 L 643.48,373.27 L 645.44,371.25 L 646.32,370.33 L 648.04,368.53 L 648.81,367.70 L 650.31,366.09 L 650.99,365.35 L 653.09,363.00 M 675.25,325.30 L 674.07,328.62 L 671.25,335.05 L 669.75,338.25 L 666.25,344.53 L 664.41,347.67 L 660.97,352.69 L 666.81,343.48 L 670.82,335.90 L 672.54,331.94 L 675.51,324.52 M 677.49,318.57 L 676.59,321.30 L 677.10,319.66 L 678.32,315.46 M 682.35,256.00 L 716.54,256.00 L 750.73,256.00 L 752.82,261.75 L 752.99,262.22 L 753.44,263.49 L 753.68,264.17 L 754.26,265.80 L 754.56,266.66 L 755.24,268.59 L 755.59,269.59 L 756.35,271.76 L 757.13,273.99 L 758.83,278.89 L 759.69,281.37 L 761.44,286.42 L 762.30,288.92 L 763.92,293.62 L 764.31,294.75 L 765.03,296.86 L 765.38,297.88 L 766.01,299.73 L 766.32,300.61 L 766.83,302.14 L 767.08,302.86 L 767.46,304.00 L 767.63,304.52 L 767.86,305.21 L 768.00,305.68 L 768.00,305.69 L 767.77,305.72 L 767.62,305.73 L 767.11,305.75 L 766.82,305.76 L 766.03,305.78 L 765.60,305.80 L 764.56,305.82 L 763.45,305.84 L 760.52,305.89 L 758.95,305.92 L 755.18,305.97 L 753.20,305.99 L 748.71,306.04 L 746.39,306.07 L 741.30,306.12 L 738.69,306.14 L 733.12,306.18 L 724.35,306.24 L 680.70,306.50 L 680.06,308.91 L 680.58,306.50 L 681.04,303.99 L 681.32,302.10 L 681.45,301.05 L 681.91,296.62 L 682.09,294.09 L 682.39,288.85 L 682.49,286.02 L 682.64,280.25 L 682.65,277.25 L 682.55,265.04 L 682.26,259.15 L 681.93,253.35 L 681.72,250.79 M 657.74,214.93 L 656.55,219.33 L 655.36,223.64 L 654.77,225.65 L 653.60,229.53 L 653.04,231.26 L 652.74,232.09 L 653.12,230.89 L 654.91,224.95 L 655.80,221.94 L 657.49,215.75 L 658.03,213.74 M 667.27,172.56 L 667.43,172.92 L 667.82,174.15 L 668.03,174.84 L 668.51,176.67 L 668.77,177.65 L 669.33,179.99 L 669.62,181.23 L 670.25,184.02 L 670.57,185.46 L 671.24,188.62 L 671.93,191.87 L 673.38,199.13 L 674.11,202.85 L 675.57,210.61 L 676.28,214.49 L 677.10,219.18 L 676.29,214.57 L 675.56,210.63 L 674.08,202.78 L 673.34,199.05 L 672.61,195.36 L 672.25,193.60 L 671.54,190.14 L 671.19,188.52 L 670.52,185.37 L 670.20,183.93 L 669.58,181.15 L 669.29,179.93 L 668.73,177.59 L 668.48,176.62 L 668.00,174.81 L 667.80,174.13 L 667.41,172.91 L 667.26,172.55 L 666.98,172.00 L 666.90,172.00 L 666.90,172.00 L 666.99,172.00 M 665.22,179.12 L 665.06,180.25 L 664.19,185.67 L 664.03,186.51 L 665.06,180.25 L 665.22,179.12 L 665.22,179.11 M 546.14,537.38 L 547.04,542.00 L 546.23,537.96 Z" fill="rgba(56,51,52,1)"/>
<path d="M 599.50,690.54 L 598.95,690.64 L 598.79,690.66 L 599.00,690.62 L 599.77,690.50 L 600.26,690.43 M 603.55,688.28 L 602.11,688.71 L 601.48,688.90 L 600.30,689.27 L 599.83,689.43 L 598.96,689.73 L 598.66,689.85 L 598.13,690.07 L 598.02,690.14 L 597.54,690.47 L 597.58,690.43 L 598.05,690.10 L 598.19,690.02 L 598.80,689.77 L 599.16,689.63 L 600.18,689.29 L 600.74,689.11 L 602.12,688.69 L 602.85,688.47 L 604.54,687.99 L 604.76,687.92 M 351.72,689.22 L 351.96,689.35 L 352.53,689.57 L 352.97,689.61 L 353.98,689.66 L 354.68,689.61 L 355.98,689.49 L 355.26,689.62 L 354.70,689.72 L 353.77,689.81 L 353.34,689.83 L 352.67,689.75 L 352.37,689.69 L 351.93,689.44 L 351.73,689.29 L 351.50,688.86 L 351.49,688.84 M 830.18,688.75 L 830.03,688.99 L 829.44,689.30 L 829.09,689.43 L 827.98,689.52 L 827.35,689.54 L 825.56,689.42 L 824.27,689.27 L 824.86,689.30 L 826.70,689.36 L 827.45,689.34 L 828.83,689.26 L 829.29,689.16 L 830.06,688.93 L 830.18,688.75 M 414.78,682.87 L 407.47,683.28 L 393.51,684.44 L 390.08,684.76 L 383.39,685.48 L 380.08,685.85 L 373.63,686.69 L 370.44,687.12 L 364.25,688.07 L 363.53,688.19 L 363.60,688.18 L 365.34,687.81 L 369.04,687.03 L 371.22,686.55 L 375.83,685.52 L 378.50,684.91 L 379.68,684.72 L 380.87,684.59 L 381.64,684.52 L 383.30,684.38 L 384.29,684.31 L 386.38,684.16 L 387.57,684.09 L 390.04,683.93 L 391.41,683.85 L 394.22,683.70 L 395.73,683.62 L 402.08,683.31 L 405.58,683.16 L 412.76,682.85 L 416.53,682.71 L 423.61,682.46 M 703.43,682.48 L 696.88,682.64 L 683.75,683.23 L 664.00,684.51 L 661.08,684.74 L 654.68,685.26 L 651.43,685.53 L 644.64,686.12 L 641.23,686.41 L 634.41,687.02 L 631.03,687.32 L 624.55,687.92 L 623.34,688.04 L 624.27,687.92 L 626.80,687.57 L 627.70,687.41 L 628.53,687.26 L 628.83,687.19 L 629.36,687.06 L 629.50,687.00 L 631.54,686.42 L 633.46,686.04 L 634.68,685.86 L 637.30,685.50 L 638.85,685.33 L 642.10,684.99 L 643.95,684.83 L 647.79,684.51 L 649.91,684.36 L 654.27,684.07 L 656.63,683.94 L 661.46,683.67 L 664.04,683.55 L 669.28,683.32 L 672.04,683.21 L 677.64,683.01 L 680.56,682.92 L 686.47,682.75 L 689.51,682.68 L 701.92,682.43 L 708.36,682.37 L 709.75,682.36 M 747.50,682.50 L 753.85,682.62 L 757.88,682.71 L 759.80,682.75 L 767.19,682.95 L 770.50,683.06 L 776.88,683.30 L 779.72,683.44 L 785.17,683.72 L 787.57,683.88 L 792.17,684.22 L 794.17,684.40 L 797.98,684.79 L 799.61,685.01 L 802.71,685.46 L 804.02,685.71 L 806.48,686.22 L 807.50,686.50 L 814.22,687.99 L 801.96,686.59 L 795.32,685.88 L 782.11,684.72 L 775.52,684.18 L 762.38,683.37 L 755.81,683.00 L 742.71,682.54 L 736.16,682.36 L 728.29,682.29 L 734.58,682.27 M 471.54,681.71 L 476.06,681.77 L 494.46,682.13 L 503.34,682.45 L 512.11,682.79 L 516.23,682.99 L 520.30,683.19 L 522.25,683.30 L 526.07,683.52 L 527.88,683.64 L 531.42,683.87 L 533.06,684.00 L 536.26,684.24 L 537.72,684.37 L 540.54,684.63 L 541.79,684.77 L 544.18,685.04 L 545.20,685.18 L 551.42,686.00 L 555.33,686.51 L 557.03,686.72 L 558.69,686.92 L 559.42,687.01 L 560.84,687.18 L 561.43,687.25 L 562.55,687.37 L 562.98,687.42 L 563.76,687.49 L 564.00,687.51 L 566.81,687.82 L 566.76,687.83 L 566.08,687.79 L 565.64,687.77 L 564.23,687.67 L 563.45,687.62 L 561.40,687.46 L 560.31,687.38 L 557.72,687.18 L 556.36,687.07 L 553.29,686.82 L 551.70,686.69 L 548.25,686.41 L 546.48,686.26 L 542.71,685.94 L 536.81,685.44 L 528.04,684.69 L 510.77,683.53 L 502.20,683.01 L 485.41,682.33 L 477.08,682.04 L 460.86,681.82 L 452.83,681.76 L 443.11,681.91 L 447.01,681.82 L 450.50,681.76 L 462.79,681.67 M 605.62,687.68 L 606.30,687.49 L 606.68,687.38 M 629.34,679.51 L 623.15,681.32 L 620.11,682.21 L 614.46,683.88 L 613.11,684.28 L 610.62,685.01 L 609.42,685.37 L 607.27,686.01 L 606.25,686.31 L 604.53,686.83 L 602.50,687.45 L 604.60,686.81 L 606.36,686.28 L 607.40,685.97 L 609.57,685.33 L 610.78,684.97 L 613.29,684.22 L 614.65,683.82 L 620.30,682.15 L 623.35,681.26 L 629.52,679.45 L 631.37,678.91 M 571.46,685.31 L 571.24,685.43 L 570.95,685.54 L 570.71,685.56 L 570.56,685.57 L 571.17,685.43 L 571.26,685.04 M 563.60,682.16 L 564.65,682.47 L 565.65,682.76 L 566.04,682.88 L 566.76,683.09 L 567.00,683.16 L 569.70,684.09 L 570.90,684.66 L 571.09,684.83 L 570.45,684.55 L 570.00,684.36 L 568.67,683.88 L 567.94,683.62 L 566.13,683.02 L 565.19,682.70 L 563.05,682.03 L 561.44,681.52 M 542.75,676.06 L 544.99,676.69 L 547.18,677.32 L 548.19,677.61 L 550.14,678.17 L 551.00,678.43 L 555.16,679.66 L 549.30,678.04 L 548.73,677.89 L 547.10,677.43 L 546.23,677.18 L 544.20,676.57 L 541.13,675.61 M 413.25,667.59 L 416.36,667.58 L 422.24,667.59 L 425.13,667.59 L 430.60,667.62 L 433.29,667.64 L 438.40,667.71 L 440.91,667.74 L 445.72,667.84 L 450.45,667.95 L 459.19,668.28 L 463.47,668.46 L 471.59,668.97 L 475.61,669.25 L 483.50,669.97 L 487.45,670.36 L 495.49,671.31 L 499.56,671.81 L 508.13,673.02 L 510.32,673.34 L 514.88,674.03 L 522.00,675.16 L 524.22,675.51 L 528.99,676.35 L 531.40,676.78 L 536.37,677.71 L 538.86,678.19 L 543.76,679.18 L 545.17,679.46 L 542.13,678.87 L 540.40,678.57 L 537.06,678.00 L 535.69,677.81 L 534.38,677.63 L 533.82,677.57 L 532.76,677.46 L 532.35,677.44 L 527.77,677.12 L 524.65,676.81 L 522.92,676.59 L 519.32,676.09 L 517.20,675.76 L 515.02,675.41 L 513.82,675.22 L 511.36,674.80 L 510.00,674.57 L 503.51,673.58 L 498.59,672.93 L 495.88,672.63 L 490.30,672.02 L 487.31,671.74 L 481.20,671.20 L 478.00,670.95 L 471.58,670.42 L 467.04,670.02 L 464.82,669.82 L 460.46,669.40 L 458.53,669.21 L 456.65,669.01 L 455.80,668.92 L 454.19,668.75 L 453.50,668.67 L 450.66,668.41 L 448.28,668.26 L 446.86,668.19 L 443.87,668.06 L 442.16,668.01 L 438.62,667.91 L 436.65,667.87 L 432.59,667.79 L 430.38,667.77 L 425.85,667.72 L 423.43,667.71 L 418.48,667.69 L 415.86,667.69 L 410.54,667.70 L 407.75,667.72 L 372.01,667.94 L 371.75,569.22 L 371.50,470.50 L 372.01,667.67 M 739.83,668.54 L 737.70,668.72 L 737.00,668.84 L 735.22,669.08 L 733.63,669.27 L 732.66,669.38 L 730.61,669.59 L 729.43,669.71 L 726.99,669.94 L 725.65,670.06 L 720.02,670.56 L 716.94,670.80 L 710.66,671.29 L 707.50,671.51 L 697.61,672.29 L 690.88,672.90 L 687.69,673.22 L 684.55,673.54 L 683.08,673.70 L 680.20,674.02 L 678.89,674.17 L 676.37,674.48 L 675.27,674.63 L 673.20,674.91 L 672.36,675.05 L 667.27,675.79 L 663.90,676.22 L 662.36,676.39 L 659.41,676.69 L 658.21,676.78 L 657.07,676.86 L 656.59,676.88 L 655.70,676.91 L 655.36,676.91 L 652.69,677.05 L 650.34,677.29 L 648.99,677.48 L 646.30,677.90 L 651.07,676.99 L 662.70,675.03 L 668.46,674.10 L 679.79,672.56 L 685.45,671.83 L 696.87,670.69 L 702.63,670.17 L 714.54,669.40 L 717.57,669.23 L 723.78,668.96 L 726.92,668.83 L 733.39,668.65 L 736.67,668.57 L 740.26,668.51 M 807.26,669.16 L 806.69,669.21 L 804.24,669.35 L 803.00,669.31 L 801.77,669.28 L 803.00,669.31 L 804.24,669.35 L 806.69,669.21 L 807.26,669.16 L 808.22,669.02 L 809.25,668.76 L 808.22,669.02 M 443.84,660.86 L 447.33,660.86 L 448.95,660.86 L 452.12,660.87 L 453.58,660.88 L 456.44,660.90 L 457.76,660.91 L 460.33,660.94 L 461.51,660.96 L 465.98,661.03 L 467.87,661.09 L 471.44,661.20 L 472.94,661.28 L 475.77,661.44 L 476.98,661.54 L 479.25,661.76 L 480.24,661.89 L 482.14,662.16 L 483.00,662.32 L 490.65,663.73 L 495.03,664.55 L 496.93,664.91 L 500.57,665.61 L 502.18,665.93 L 505.28,666.56 L 506.70,666.86 L 512.10,668.04 L 514.82,668.69 L 516.03,668.99 L 511.25,668.01 L 506.15,666.99 L 495.95,665.27 L 493.46,664.87 L 488.68,664.21 L 482.00,663.42 L 480.48,663.27 L 477.25,663.00 L 475.60,662.87 L 472.04,662.64 L 470.21,662.53 L 466.22,662.34 L 464.17,662.25 L 459.65,662.10 L 457.32,662.03 L 452.17,661.92 L 449.50,661.87 L 443.62,661.78 L 440.58,661.74 L 433.86,661.69 L 422.74,661.63 L 385.64,661.52 L 386.12,661.49 L 386.56,661.47 L 388.58,661.39 L 389.94,661.35 L 392.89,661.27 L 394.68,661.24 L 398.44,661.17 L 400.59,661.13 L 405.03,661.07 L 407.46,661.04 L 412.46,660.99 L 415.12,660.97 L 420.54,660.93 L 423.37,660.91 L 429.08,660.88 L 432.00,660.88 L 438.20,660.86 L 442.04,660.86 M 769.27,660.34 L 773.87,660.36 L 776.04,660.38 L 780.27,660.44 L 782.23,660.49 L 786.02,660.59 L 787.72,660.66 L 790.99,660.81 L 792.39,660.90 L 795.04,661.09 L 796.11,661.20 L 798.06,661.44 L 798.75,661.58 L 800.86,662.00 L 763.25,662.01 L 760.06,662.01 L 754.04,662.04 L 751.09,662.05 L 745.51,662.11 L 742.78,662.14 L 737.59,662.23 L 735.05,662.28 L 730.21,662.41 L 727.83,662.48 L 723.29,662.65 L 721.05,662.75 L 716.75,662.97 L 712.51,663.21 L 704.57,663.85 L 700.66,664.20 L 693.09,665.09 L 689.31,665.57 L 681.72,666.74 L 677.88,667.37 L 669.94,668.85 L 671.15,668.52 L 671.60,668.37 L 672.36,668.09 L 672.50,667.99 L 673.72,667.42 L 675.00,667.00 L 675.83,666.77 L 677.62,666.31 L 678.67,666.07 L 680.86,665.59 L 682.07,665.36 L 687.17,664.42 L 689.90,664.01 L 695.40,663.24 L 698.00,662.98 L 703.53,662.49 L 707.57,662.19 L 709.75,662.05 L 714.19,661.78 L 716.54,661.65 L 721.29,661.41 L 723.76,661.30 L 733.84,660.91 L 739.03,660.76 L 749.44,660.51 L 754.54,660.43 L 764.60,660.33 M 490.65,648.03 L 492.33,648.31 L 493.31,648.47 L 495.35,648.78 L 496.43,648.93 L 503.21,650.27 L 505.32,650.83 L 506.21,651.12 L 507.86,651.69 L 508.42,651.96 L 510.71,652.95 L 512.76,653.78 L 513.94,654.24 L 519.02,656.17 L 521.50,657.04 L 525.32,658.43 L 528.25,659.54 L 529.83,660.16 L 529.99,660.23 L 529.14,659.90 L 524.30,658.14 L 521.89,657.27 L 517.24,655.66 L 514.97,654.89 L 510.82,653.57 L 505.50,652.04 L 503.30,651.47 L 498.23,650.12 L 497.01,649.80 L 494.77,649.20 L 492.00,648.44 L 490.55,648.04 L 489.93,647.90 M 474.00,633.31 L 475.17,633.64 L 478.23,634.50 L 479.85,634.95 L 483.48,635.95 L 485.32,636.45 L 489.06,637.47 L 494.32,638.89 L 496.61,639.50 L 500.91,640.85 L 503.07,641.57 L 507.57,643.34 L 508.74,643.81 L 511.22,644.89 L 512.49,645.45 L 515.23,646.72 L 516.64,647.38 L 519.73,648.86 L 524.82,651.38 L 527.27,652.60 L 525.72,651.86 L 521.62,649.89 L 519.73,649.01 L 516.08,647.33 L 514.54,646.66 L 513.06,646.01 L 512.41,645.73 L 511.17,645.22 L 510.65,645.02 L 509.70,644.66 L 509.35,644.54 L 508.72,644.36 L 508.55,644.34 L 507.12,644.06 L 506.01,643.75 L 505.42,643.55 L 503.02,642.66 L 502.05,642.15 L 501.10,641.71 L 500.27,641.37 L 499.76,641.18 L 497.53,640.36 L 496.16,639.90 L 493.30,638.95 L 491.75,638.47 L 488.58,637.52 L 487.00,637.07 L 476.97,634.24 L 473.79,633.34 L 472.43,632.96 L 470.86,632.51 M 474.05,644.81 L 476.24,645.14 L 478.37,645.46 L 479.33,645.61 L 481.19,645.91 L 482.00,646.05 L 483.56,646.32 L 484.22,646.45 L 485.45,646.70 L 485.95,646.81 L 486.85,647.04 L 487.17,647.13 L 487.71,647.32 L 487.85,647.41 L 488.11,647.48 L 487.05,647.24 L 485.21,646.83 L 481.00,646.03 L 478.82,645.63 L 474.01,644.84 L 472.35,644.58 M 406.14,645.51 L 408.41,645.71 L 412.65,646.02 L 410.98,645.93 L 405.88,645.52 L 404.51,645.37 M 394.05,643.50 L 393.09,643.06 L 392.46,642.56 L 392.33,642.19 L 392.16,641.35 L 392.21,640.69 L 392.38,639.19 L 392.55,638.09 L 392.63,637.14 L 392.68,636.04 L 392.70,635.26 L 392.75,633.57 L 392.77,632.51 L 392.82,630.26 L 392.85,628.93 L 392.89,626.15 L 392.91,624.58 L 392.96,621.31 L 392.98,619.50 L 393.02,615.78 L 393.04,613.76 L 393.08,609.61 L 393.10,607.38 L 393.14,602.84 L 393.16,600.44 L 393.19,595.54 L 393.21,592.97 L 393.24,587.75 L 393.25,585.03 L 393.28,579.52 L 393.29,576.67 L 393.34,565.01 L 393.35,558.88 L 393.38,546.43 L 393.39,540.00 L 393.50,446.50 L 393.77,545.24 M 778.27,407.60 L 778.30,408.00 L 778.35,409.36 L 778.38,410.14 L 778.42,412.23 L 778.45,413.36 L 778.49,416.13 L 778.51,417.60 L 778.55,421.02 L 778.57,422.81 L 778.60,426.84 L 778.62,428.92 L 778.65,433.52 L 778.67,435.88 L 778.69,441.00 L 778.71,443.62 L 778.73,449.23 L 778.74,452.09 L 778.76,458.15 L 778.76,461.23 L 778.78,467.69 L 778.78,470.97 L 778.79,477.81 L 778.79,481.27 L 778.79,488.43 L 778.79,492.05 L 778.79,499.50 L 778.75,522.75 L 778.50,638.50 L 762.00,639.73 L 757.72,640.04 L 749.03,640.75 L 746.89,640.93 L 742.72,641.30 L 740.67,641.48 L 736.79,641.84 L 735.62,641.95 L 740.39,641.48 L 743.70,641.15 L 745.10,641.01 L 747.77,640.74 L 748.92,640.62 L 751.14,640.38 L 752.14,640.28 L 755.94,639.85 L 757.91,639.62 L 759.92,639.37 L 761.04,639.23 L 763.36,638.95 L 764.71,638.78 L 768.75,638.20 L 771.20,637.78 L 772.22,637.57 L 774.11,637.15 L 774.75,636.96 L 775.82,636.59 L 775.96,636.45 L 776.09,635.67 L 776.17,634.54 L 776.21,633.68 L 776.28,631.77 L 776.31,630.54 L 776.38,627.92 L 776.41,626.35 L 776.47,623.06 L 776.49,621.18 L 776.55,617.28 L 776.57,615.12 L 776.61,610.66 L 776.64,608.24 L 776.67,603.28 L 776.69,600.63 L 776.72,595.22 L 776.74,592.36 L 776.76,586.56 L 776.77,583.53 L 776.79,577.40 L 776.80,574.22 L 776.81,567.80 L 776.82,564.50 L 776.83,551.09 L 776.83,544.17 L 776.81,530.22 L 776.80,523.19 L 776.77,509.15 L 776.74,502.23 L 776.68,488.52 L 776.65,481.94 L 776.61,475.42 L 776.59,472.25 L 776.55,465.98 L 776.53,462.97 L 776.48,457.02 L 776.45,454.18 L 776.40,448.60 L 776.37,445.97 L 776.32,440.81 L 776.29,438.41 L 776.23,433.74 L 776.19,431.60 L 776.13,427.45 L 776.09,425.60 L 776.02,422.04 L 775.99,420.50 L 775.91,417.59 L 775.88,416.39 L 775.80,414.17 L 775.76,413.34 L 775.67,411.88 L 775.63,411.44 L 775.54,410.78 L 775.50,410.77 L 774.99,410.92 L 774.58,411.24 L 774.35,411.49 L 773.41,412.72 L 773.21,413.13 L 773.30,412.91 L 773.67,412.24 L 774.08,411.53 L 775.22,409.94 L 775.81,409.16 L 776.96,407.89 L 777.23,407.62 L 777.68,407.24 L 778.19,407.00 L 778.22,407.00 M 403.06,519.19 L 403.10,533.54 L 403.12,540.61 L 403.17,554.65 L 403.20,561.39 L 403.23,568.08 L 403.25,571.33 L 403.28,577.76 L 403.30,580.85 L 403.33,586.97 L 403.35,589.88 L 403.38,595.62 L 403.40,598.33 L 403.44,603.64 L 403.46,606.11 L 403.50,610.93 L 403.52,613.14 L 403.57,617.42 L 403.59,619.34 L 403.63,623.03 L 403.66,624.63 L 403.70,627.66 L 403.73,628.91 L 403.77,631.23 L 403.80,632.11 L 403.85,633.67 L 403.87,634.14 L 403.92,634.88 L 403.95,634.92 L 404.59,635.54 L 405.28,635.94 L 405.77,636.13 L 406.86,636.50 L 407.57,636.68 L 409.10,637.04 L 410.06,637.22 L 412.09,637.57 L 413.31,637.75 L 415.90,638.12 L 417.42,638.31 L 420.61,638.69 L 422.46,638.89 L 426.31,639.30 L 428.50,639.51 L 439.79,640.68 L 447.02,641.46 L 447.41,641.51 L 430.50,640.02 L 428.44,639.87 L 424.19,639.56 L 422.08,639.40 L 418.08,639.10 L 416.16,638.95 L 412.89,638.69 L 412.14,638.63 L 410.85,638.53 L 409.30,638.39 L 403.10,637.85 L 403.05,521.26 L 403.05,513.24 L 403.05,512.39 M 446.53,626.90 L 447.49,627.19 L 449.71,627.79 L 450.85,628.09 L 453.21,628.66 L 453.27,628.68 L 453.21,628.66 L 452.18,628.42 L 447.93,627.37 L 446.14,626.82 L 442.56,625.87 M 380.79,430.09 L 380.74,431.02 L 380.71,431.77 L 380.66,433.46 L 380.63,434.57 L 380.58,436.97 L 380.55,438.43 L 380.50,441.50 L 380.48,443.28 L 380.43,446.99 L 380.41,449.07 L 380.36,453.38 L 380.34,455.74 L 380.30,460.60 L 380.28,463.16 L 380.28,463.12 L 380.30,460.50 L 380.34,455.66 L 380.36,453.30 L 380.41,449.01 L 380.43,446.94 L 380.48,443.24 L 380.50,441.47 L 380.55,438.40 L 380.58,436.95 L 380.63,434.56 L 380.66,433.45 L 380.71,431.76 L 380.74,431.02 L 380.79,430.08 L 380.88,429.57 M 403.56,405.24 L 404.25,406.14 L 404.65,406.66 L 405.72,408.13 L 406.29,408.91 L 407.60,410.75 L 408.26,411.69 L 409.66,413.69 L 409.74,413.80 L 409.66,413.69 L 408.26,411.69 L 407.60,410.75 L 406.29,408.91 L 405.72,408.13 L 404.65,406.66 L 404.25,406.14 L 403.56,405.24 L 403.41,405.08 L 403.41,405.08 M 551.19,665.23 L 550.30,664.71 L 548.62,663.73 L 548.00,663.37 L 546.31,662.42 L 546.71,662.64 L 548.00,663.36 L 548.62,663.73 L 550.30,664.71 L 551.19,665.23 L 553.23,666.42 L 559.50,670.05 L 553.23,666.42 M 769.75,418.48 L 769.84,418.38 L 769.69,418.59 L 769.00,419.36 L 766.50,422.16 L 765.50,621.47 L 766.50,422.15 M 830.11,458.66 L 830.15,459.09 L 830.21,460.57 L 830.25,461.41 L 830.31,463.66 L 830.34,464.87 L 830.40,467.84 L 830.43,469.40 L 830.49,473.02 L 830.52,474.91 L 830.57,479.13 L 830.59,481.31 L 830.64,486.08 L 830.67,488.53 L 830.71,493.79 L 830.73,496.47 L 830.77,502.17 L 830.79,505.06 L 830.82,511.13 L 830.84,514.21 L 830.87,520.61 L 830.88,523.84 L 830.91,530.51 L 830.93,537.23 L 830.97,551.24 L 830.98,558.30 L 830.99,570.68 L 830.98,558.30 L 830.97,551.24 L 830.93,537.23 L 830.91,530.51 L 830.88,523.84 L 830.87,520.61 L 830.84,514.21 L 830.82,511.13 L 830.79,505.06 L 830.77,502.17 L 830.73,496.47 L 830.71,493.79 L 830.67,488.53 L 830.64,486.08 L 830.59,481.31 L 830.57,479.13 L 830.52,474.91 L 830.49,473.02 L 830.43,469.40 L 830.40,467.84 L 830.34,464.87 L 830.31,463.66 L 830.25,461.41 L 830.21,460.57 L 830.15,459.09 L 830.11,458.66 L 830.04,458.00 L 830.04,458.00 M 801.21,431.87 L 801.27,433.06 L 801.30,433.74 L 801.37,435.60 L 801.40,436.61 L 801.45,439.10 L 801.48,440.43 L 801.54,443.55 L 801.56,445.18 L 801.61,448.90 L 801.64,450.84 L 801.68,455.14 L 801.71,457.36 L 801.75,462.23 L 801.77,464.74 L 801.81,470.16 L 801.82,472.93 L 801.86,478.88 L 801.87,481.92 L 801.90,488.38 L 801.91,491.67 L 801.93,498.62 L 801.95,502.16 L 801.96,509.58 L 801.97,513.36 L 801.98,521.24 L 801.99,525.23 L 802.00,533.55 L 802.00,546.50 L 802.00,546.61 L 802.00,533.65 L 801.99,525.32 L 801.98,521.32 L 801.97,513.44 L 801.96,509.66 L 801.95,502.23 L 801.93,498.69 L 801.91,491.73 L 801.90,488.44 L 801.87,481.97 L 801.86,478.93 L 801.82,472.98 L 801.81,470.20 L 801.77,464.77 L 801.75,462.27 L 801.71,457.39 L 801.68,455.16 L 801.64,450.85 L 801.61,448.92 L 801.56,445.20 L 801.54,443.56 L 801.48,440.44 L 801.45,439.11 L 801.40,436.61 L 801.37,435.60 L 801.30,433.75 L 801.27,433.06 L 801.21,431.87 L 801.17,431.52 L 801.10,431.00 L 801.17,431.52 Z" fill="rgba(59,50,134,1)"/>
<path d="M 830.11,458.66 L 830.15,459.09 L 830.21,460.57 L 830.25,461.41 L 830.31,463.66 L 830.34,464.87 L 830.40,467.84 L 830.43,469.40 L 830.49,473.02 L 830.52,474.91 L 830.57,479.13 L 830.59,481.31 L 830.64,486.08 L 830.67,488.53 L 830.71,493.79 L 830.73,496.47 L 830.77,502.17 L 830.79,505.06 L 830.82,511.13 L 830.84,514.21 L 830.87,520.61 L 830.88,523.84 L 830.91,530.51 L 830.93,537.23 L 830.97,551.24 L 830.98,558.30 L 831.00,572.66 L 831.00,579.84 L 831.00,594.10 L 830.99,601.18 L 830.97,614.90 L 830.97,618.28 L 830.95,624.85 L 830.94,628.10 L 830.92,634.38 L 830.90,637.49 L 830.88,643.43 L 830.86,646.35 L 830.83,651.89 L 830.81,654.60 L 830.78,659.69 L 830.76,662.17 L 830.71,666.74 L 830.69,668.96 L 830.64,672.97 L 830.62,674.90 L 830.57,678.28 L 830.54,679.89 L 830.48,682.60 L 830.45,683.87 L 830.39,685.84 L 830.36,686.73 L 830.29,687.92 L 830.18,688.75 L 830.06,688.93 L 829.29,689.16 L 828.83,689.26 L 827.45,689.34 L 826.70,689.36 L 824.86,689.30 L 823.89,689.25 L 821.71,689.06 L 819.47,688.84 L 814.53,688.06 L 807.50,686.50 L 806.48,686.22 L 804.02,685.71 L 802.71,685.46 L 799.61,685.01 L 797.98,684.79 L 794.17,684.40 L 792.17,684.22 L 787.57,683.88 L 785.17,683.72 L 779.72,683.44 L 776.88,683.30 L 770.50,683.06 L 767.19,682.95 L 759.80,682.75 L 757.88,682.71 L 753.85,682.62 L 747.50,682.50 L 734.58,682.27 L 708.36,682.37 L 701.92,682.43 L 689.51,682.68 L 686.47,682.75 L 680.56,682.92 L 677.64,683.01 L 672.04,683.21 L 669.28,683.32 L 664.04,683.55 L 661.46,683.67 L 656.63,683.94 L 654.27,684.07 L 649.91,684.36 L 647.79,684.51 L 643.95,684.83 L 642.10,684.99 L 638.85,685.33 L 637.30,685.50 L 634.68,685.86 L 633.46,686.04 L 631.54,686.42 L 629.50,687.00 L 629.36,687.06 L 628.83,687.19 L 628.53,687.26 L 627.70,687.41 L 626.80,687.57 L 624.27,687.92 L 622.91,688.09 L 619.71,688.46 L 614.50,688.97 L 612.71,689.13 L 609.26,689.45 L 607.57,689.62 L 604.58,689.93 L 603.18,690.08 L 601.00,690.33 L 600.52,690.39 L 599.77,690.50 L 599.00,690.62 L 598.53,690.72 L 597.89,690.81 L 597.62,690.84 L 597.37,690.80 L 597.29,690.77 L 597.42,690.59 L 597.53,690.48 L 598.02,690.14 L 598.13,690.07 L 598.66,689.85 L 598.96,689.73 L 599.83,689.43 L 600.30,689.27 L 601.48,688.90 L 602.11,688.71 L 603.55,688.28 L 605.06,687.83 L 608.74,686.81 L 610.65,686.28 L 614.91,685.15 L 619.27,684.00 L 628.45,681.72 L 630.68,681.17 L 634.89,680.19 L 640.50,678.94 L 643.25,678.37 L 648.99,677.48 L 650.34,677.29 L 652.69,677.05 L 655.36,676.91 L 655.70,676.91 L 656.59,676.88 L 657.07,676.86 L 658.21,676.78 L 659.41,676.69 L 662.36,676.39 L 663.90,676.22 L 667.27,675.79 L 672.36,675.05 L 673.20,674.91 L 675.27,674.63 L 676.37,674.48 L 678.89,674.17 L 680.20,674.02 L 683.08,673.70 L 684.55,673.54 L 687.69,673.22 L 690.88,672.90 L 697.61,672.29 L 707.50,671.51 L 710.66,671.29 L 716.94,670.80 L 720.02,670.56 L 725.65,670.06 L 726.99,669.94 L 729.43,669.71 L 730.61,669.59 L 732.66,669.38 L 733.63,669.27 L 735.22,669.08 L 737.00,668.84 L 737.70,668.72 L 739.83,668.54 L 741.01,668.46 L 744.13,668.35 L 745.81,668.30 L 749.94,668.26 L 752.13,668.24 L 757.30,668.27 L 758.66,668.28 L 761.57,668.31 L 763.06,668.33 L 766.25,668.37 L 767.87,668.40 L 771.33,668.47 L 773.09,668.50 L 776.82,668.59 L 778.72,668.63 L 782.73,668.73 L 784.77,668.78 L 789.06,668.90 L 791.24,668.96 L 795.82,669.09 L 803.00,669.31 L 804.24,669.35 L 806.69,669.21 L 807.26,669.16 L 808.22,669.02 L 809.25,668.76 L 809.46,668.68 L 809.80,668.12 L 809.88,667.92 L 810.02,667.32 L 810.09,666.98 L 810.22,666.04 L 810.28,665.53 L 810.39,664.17 L 810.44,663.43 L 810.53,661.57 L 810.57,660.58 L 810.65,658.14 L 810.68,656.84 L 810.74,653.75 L 810.77,652.11 L 810.82,648.27 L 810.84,646.25 L 810.88,641.60 L 810.90,639.16 L 810.93,633.60 L 810.94,630.70 L 810.96,624.16 L 810.96,622.46 L 810.97,618.86 L 810.97,617.03 L 810.98,613.16 L 810.98,611.19 L 810.99,607.04 L 810.99,604.92 L 810.99,600.48 L 810.99,598.22 L 811.00,593.47 L 811.00,591.05 L 811.00,585.99 L 811.00,583.42 L 811.00,578.03 L 811.00,569.58 L 811.00,471.10 L 814.34,468.55 L 815.26,467.85 L 817.02,466.75 L 817.42,466.52 L 818.08,466.20 L 818.76,466.00 L 819.06,466.00 L 819.62,465.78 L 820.17,465.25 L 820.23,465.11 L 820.60,464.70 L 820.82,464.48 L 821.43,463.95 L 822.09,463.40 L 823.81,462.20 L 824.68,461.61 L 826.31,460.66 L 826.69,460.46 L 827.31,460.18 L 827.96,460.00 L 828.25,460.00 L 828.69,459.71 L 829.00,459.00 L 829.00,458.72 L 829.29,458.29 L 830.00,458.00 L 830.04,458.00 M 380.99,429.70 L 381.66,430.57 L 382.06,431.08 L 383.19,432.58 L 383.80,433.39 L 385.25,435.32 L 387.60,438.50 L 393.50,446.50 L 393.39,540.00 L 393.38,546.43 L 393.35,558.88 L 393.34,565.01 L 393.29,576.67 L 393.28,579.52 L 393.25,585.03 L 393.24,587.75 L 393.21,592.97 L 393.19,595.54 L 393.16,600.44 L 393.14,602.84 L 393.10,607.38 L 393.08,609.61 L 393.04,613.76 L 393.02,615.78 L 392.98,619.50 L 392.96,621.31 L 392.91,624.58 L 392.89,626.15 L 392.85,628.93 L 392.82,630.26 L 392.77,632.51 L 392.75,633.57 L 392.70,635.26 L 392.68,636.04 L 392.63,637.14 L 392.55,638.09 L 392.38,639.19 L 392.21,640.69 L 392.16,641.35 L 392.33,642.19 L 392.46,642.56 L 393.09,643.06 L 394.66,643.77 L 394.99,643.90 L 396.01,644.16 L 396.57,644.28 L 398.02,644.54 L 398.79,644.67 L 400.60,644.92 L 401.55,645.04 L 403.68,645.28 L 405.88,645.52 L 410.98,645.93 L 419.21,646.40 L 420.51,646.45 L 422.74,646.73 L 423.23,646.81 L 423.96,646.99 L 424.59,647.26 L 424.69,647.35 L 425.18,647.48 L 425.47,647.53 L 426.27,647.58 L 429.38,647.42 L 429.71,647.38 L 430.69,647.36 L 431.23,647.36 L 432.61,647.42 L 433.34,647.46 L 435.08,647.59 L 435.99,647.66 L 438.05,647.86 L 439.12,647.97 L 441.47,648.24 L 442.68,648.38 L 445.28,648.70 L 447.94,649.04 L 453.88,649.87 L 456.93,650.30 L 463.42,651.30 L 466.71,651.81 L 473.49,652.94 L 476.88,653.51 L 483.65,654.72 L 493.50,656.60 L 494.84,656.86 L 498.09,657.59 L 499.79,657.98 L 503.59,658.91 L 507.48,659.88 L 515.94,662.17 L 518.03,662.75 L 522.11,663.91 L 524.11,664.49 L 527.83,665.61 L 529.62,666.15 L 532.75,667.16 L 536.54,668.48 L 538.38,669.17 L 541.80,670.26 L 542.57,670.49 L 543.81,670.80 L 545.04,671.00 L 545.32,671.00 L 546.20,671.17 L 546.69,671.28 L 547.96,671.66 L 548.63,671.86 L 550.22,672.41 L 551.05,672.71 L 552.90,673.40 L 554.81,674.13 L 559.14,675.91 L 561.35,676.84 L 565.92,678.85 L 568.19,679.86 L 572.52,681.89 L 574.60,682.88 L 578.19,684.70 L 579.02,685.13 L 580.45,685.92 L 581.12,686.30 L 582.20,686.96 L 582.69,687.27 L 583.35,687.77 L 583.81,688.32 L 583.88,688.65 L 583.82,688.85 L 583.63,688.62 L 583.05,688.21 L 582.63,687.99 L 580.61,687.03 L 579.32,686.59 L 577.48,685.98 L 576.45,685.65 L 576.03,685.53 L 574.56,685.13 L 574.11,685.09 L 573.38,685.11 L 573.22,685.26 L 573.00,685.66 L 573.00,686.00 L 573.44,686.71 L 574.09,687.00 L 574.50,687.00 L 575.56,687.27 L 576.00,687.68 L 576.00,687.93 L 576.22,688.33 L 576.56,688.59 L 576.81,688.72 L 577.99,689.17 L 578.75,689.28 L 579.90,689.46 L 580.14,689.49 L 578.31,689.37 L 576.71,689.23 L 573.47,688.86 L 572.72,688.76 L 571.43,688.58 L 570.00,688.32 L 569.31,688.17 L 567.21,687.86 L 564.00,687.51 L 563.76,687.49 L 562.98,687.42 L 562.55,687.37 L 561.43,687.25 L 560.84,687.18 L 559.42,687.01 L 558.69,686.92 L 557.03,686.72 L 555.33,686.51 L 551.42,686.00 L 545.20,685.18 L 544.18,685.04 L 541.79,684.77 L 540.54,684.63 L 537.72,684.37 L 536.26,684.24 L 533.06,684.00 L 531.42,683.87 L 527.88,683.64 L 526.07,683.52 L 522.25,683.30 L 520.30,683.19 L 516.23,682.99 L 512.11,682.79 L 503.34,682.45 L 494.46,682.13 L 476.06,681.77 L 471.54,681.71 L 462.79,681.67 L 450.50,681.76 L 447.01,681.82 L 439.55,681.99 L 435.78,682.08 L 428.04,682.32 L 424.18,682.44 L 416.53,682.71 L 412.76,682.85 L 405.58,683.16 L 402.08,683.31 L 395.73,683.62 L 394.22,683.70 L 391.41,683.85 L 390.04,683.93 L 387.57,684.09 L 386.38,684.16 L 384.29,684.31 L 383.30,684.38 L 381.64,684.52 L 380.87,684.59 L 379.68,684.72 L 378.50,684.91 L 375.83,685.52 L 371.22,686.55 L 369.04,687.03 L 365.34,687.81 L 363.60,688.18 L 360.72,688.73 L 359.37,688.98 L 357.21,689.32 L 356.21,689.47 L 354.68,689.61 L 353.98,689.66 L 352.97,689.61 L 352.53,689.57 L 351.96,689.35 L 351.72,689.22 L 351.49,688.84 L 351.48,688.79 L 351.44,688.10 L 351.43,687.66 L 351.40,686.22 L 351.38,685.40 L 351.36,683.24 L 351.34,682.07 L 351.32,679.22 L 351.31,677.72 L 351.28,674.23 L 351.27,672.42 L 351.25,668.33 L 351.25,666.22 L 351.23,661.58 L 351.22,659.19 L 351.21,654.03 L 351.20,651.39 L 351.20,645.74 L 351.19,642.87 L 351.19,636.79 L 351.18,633.69 L 351.18,627.21 L 351.18,623.93 L 351.18,617.09 L 351.18,613.62 L 351.19,606.46 L 351.19,602.84 L 351.20,595.40 L 351.24,572.22 L 351.50,456.94 L 371.50,470.50 L 371.75,569.22 L 372.01,667.94 L 407.75,667.72 L 410.54,667.70 L 415.86,667.69 L 418.48,667.69 L 423.43,667.71 L 425.85,667.72 L 430.38,667.77 L 432.59,667.79 L 436.65,667.87 L 438.62,667.91 L 442.16,668.01 L 443.87,668.06 L 446.86,668.19 L 448.28,668.26 L 450.66,668.41 L 453.50,668.67 L 454.19,668.75 L 455.80,668.92 L 456.65,669.01 L 458.53,669.21 L 460.46,669.40 L 464.82,669.82 L 467.04,670.02 L 471.58,670.42 L 478.00,670.95 L 481.20,671.20 L 487.31,671.74 L 490.30,672.02 L 495.88,672.63 L 498.59,672.93 L 503.51,673.58 L 510.00,674.57 L 511.36,674.80 L 513.82,675.22 L 515.02,675.41 L 517.20,675.76 L 519.32,676.09 L 522.92,676.59 L 524.65,676.81 L 527.77,677.12 L 532.35,677.44 L 532.76,677.46 L 533.82,677.57 L 534.38,677.63 L 535.69,677.81 L 537.06,678.00 L 540.40,678.57 L 542.13,678.87 L 545.92,679.61 L 547.84,679.99 L 551.73,680.81 L 553.65,681.22 L 557.28,682.06 L 559.03,682.47 L 562.04,683.24 L 562.73,683.42 L 563.95,683.76 L 564.52,683.93 L 565.46,684.23 L 565.89,684.37 L 566.50,684.62 L 567.00,684.91 L 567.14,685.08 L 568.02,685.35 L 569.78,685.58 L 570.16,685.60 L 570.71,685.56 L 570.95,685.54 L 571.24,685.43 L 571.46,685.31 L 571.16,684.89 L 570.90,684.66 L 569.70,684.09 L 567.00,683.16 L 566.76,683.09 L 566.04,682.88 L 565.65,682.76 L 564.65,682.47 L 563.60,682.16 L 560.86,681.35 L 559.41,680.92 L 556.13,679.95 L 551.00,678.43 L 550.14,678.17 L 548.19,677.61 L 547.18,677.32 L 544.99,676.69 L 542.75,676.06 L 537.86,674.70 L 535.39,674.02 L 530.50,672.71 L 523.81,670.95 L 522.09,670.51 L 519.04,669.73 L 517.56,669.36 L 514.82,668.69 L 512.10,668.04 L 506.70,666.86 L 505.28,666.56 L 502.18,665.93 L 500.57,665.61 L 496.93,664.91 L 495.03,664.55 L 490.65,663.73 L 483.00,662.32 L 482.14,662.16 L 480.24,661.89 L 479.25,661.76 L 476.98,661.54 L 475.77,661.44 L 472.94,661.28 L 471.44,661.20 L 467.87,661.09 L 465.98,661.03 L 461.51,660.96 L 460.33,660.94 L 457.76,660.91 L 456.44,660.90 L 453.58,660.88 L 452.12,660.87 L 448.95,660.86 L 447.33,660.86 L 443.84,660.86 L 442.04,660.86 L 438.20,660.86 L 432.00,660.88 L 429.08,660.88 L 423.37,660.91 L 420.54,660.93 L 415.12,660.97 L 412.46,660.99 L 407.46,661.04 L 405.03,661.07 L 400.59,661.13 L 398.44,661.17 L 394.68,661.24 L 392.89,661.27 L 389.94,661.35 L 388.58,661.39 L 386.56,661.47 L 386.12,661.49 L 385.44,661.53 L 384.74,661.59 L 379.98,662.19 L 380.01,545.42 L 380.01,537.39 L 380.04,521.98 L 380.04,518.20 L 380.06,510.84 L 380.07,507.20 L 380.09,500.15 L 380.10,496.68 L 380.13,489.99 L 380.14,486.70 L 380.17,480.41 L 380.19,477.32 L 380.23,471.47 L 380.24,468.60 L 380.28,463.22 L 380.30,460.60 L 380.34,455.74 L 380.36,453.38 L 380.41,449.07 L 380.43,446.99 L 380.48,443.28 L 380.50,441.50 L 380.55,438.43 L 380.58,436.97 L 380.63,434.57 L 380.66,433.46 L 380.71,431.77 L 380.74,431.02 L 380.79,430.09 L 380.88,429.57 M 801.17,431.52 L 801.21,431.87 L 801.27,433.06 L 801.30,433.75 L 801.37,435.60 L 801.40,436.61 L 801.45,439.11 L 801.48,440.44 L 801.54,443.56 L 801.56,445.20 L 801.61,448.92 L 801.64,450.85 L 801.68,455.16 L 801.71,457.39 L 801.75,462.27 L 801.77,464.77 L 801.81,470.20 L 801.82,472.98 L 801.86,478.93 L 801.87,481.97 L 801.90,488.44 L 801.91,491.73 L 801.93,498.69 L 801.95,502.23 L 801.96,509.66 L 801.97,513.44 L 801.98,521.32 L 801.99,525.32 L 802.00,533.65 L 802.00,546.61 L 802.00,662.23 L 798.75,661.58 L 798.06,661.44 L 796.11,661.20 L 795.04,661.09 L 792.39,660.90 L 790.99,660.81 L 787.72,660.66 L 786.02,660.59 L 782.23,660.49 L 780.27,660.44 L 776.04,660.38 L 773.87,660.36 L 769.27,660.34 L 764.60,660.33 L 754.54,660.43 L 749.44,660.51 L 739.03,660.76 L 733.84,660.91 L 723.76,661.30 L 721.29,661.41 L 716.54,661.65 L 714.19,661.78 L 709.75,662.05 L 707.57,662.19 L 703.53,662.49 L 698.00,662.98 L 695.40,663.24 L 689.90,664.01 L 687.17,664.42 L 682.07,665.36 L 680.86,665.59 L 678.67,666.07 L 677.62,666.31 L 675.83,666.77 L 675.00,667.00 L 673.72,667.42 L 672.50,667.99 L 672.36,668.09 L 671.60,668.37 L 671.15,668.52 L 669.88,668.87 L 669.20,669.05 L 667.60,669.42 L 665.00,669.96 L 663.21,670.30 L 659.97,670.93 L 659.24,671.07 L 658.10,671.30 L 657.00,671.52 L 656.90,671.54 L 656.24,671.72 L 655.83,671.83 L 654.59,672.18 L 653.91,672.37 L 652.18,672.86 L 651.27,673.13 L 649.12,673.75 L 648.00,674.07 L 645.52,674.79 L 644.24,675.16 L 641.49,675.96 L 638.68,676.77 L 632.59,678.55 L 629.52,679.45 L 623.35,681.26 L 620.30,682.15 L 614.65,683.82 L 613.29,684.22 L 610.78,684.97 L 609.57,685.33 L 607.40,685.97 L 606.36,686.28 L 604.60,686.81 L 602.50,687.45 L 601.78,687.67 L 600.62,688.02 L 600.08,688.19 L 599.23,688.44 L 598.44,688.68 L 597.60,688.88 L 597.27,688.94 L 597.05,688.86 L 596.99,688.79 L 597.00,688.51 L 597.00,688.46 L 597.21,688.29 L 597.34,688.19 L 597.80,687.90 L 598.31,687.60 L 599.97,686.73 L 600.89,686.25 L 603.18,685.13 L 604.39,684.54 L 607.09,683.27 L 609.86,681.97 L 615.67,679.39 L 617.07,678.78 L 619.66,677.69 L 623.00,676.36 L 624.79,675.68 L 628.52,674.20 L 629.39,673.85 L 630.91,673.21 L 632.65,672.45 L 633.52,672.05 L 635.44,671.43 L 635.90,671.30 L 636.72,671.11 L 637.71,671.00 L 638.03,671.00 L 639.27,670.75 L 639.97,670.59 L 641.82,670.09 L 642.80,669.81 L 645.02,669.12 L 646.16,668.76 L 648.52,667.98 L 649.69,667.58 L 651.96,666.77 L 653.05,666.38 L 654.98,665.63 L 655.89,665.27 L 657.25,664.66 L 658.41,663.99 L 658.68,663.72 L 659.86,663.29 L 661.95,663.00 L 662.30,663.00 L 663.65,662.81 L 664.41,662.69 L 666.39,662.30 L 667.44,662.08 L 669.80,661.54 L 673.50,660.62 L 675.29,660.15 L 678.63,659.30 L 680.27,658.89 L 683.39,658.14 L 686.47,657.42 L 692.46,656.21 L 695.49,655.63 L 702.05,654.57 L 703.77,654.31 L 707.46,653.78 L 713.50,652.97 L 715.70,652.68 L 719.91,652.08 L 721.95,651.79 L 725.53,651.22 L 726.37,651.09 L 727.86,650.83 L 728.57,650.71 L 729.77,650.48 L 730.32,650.38 L 731.17,650.19 L 732.00,649.96 L 732.16,649.91 L 732.81,649.77 L 733.19,649.69 L 734.24,649.53 L 734.81,649.44 L 736.20,649.26 L 736.94,649.16 L 738.62,648.96 L 740.36,648.75 L 744.47,648.32 L 746.59,648.10 L 751.12,647.67 L 753.40,647.46 L 757.92,647.07 L 760.14,646.88 L 764.19,646.58 L 765.16,646.51 L 766.92,646.40 L 767.78,646.35 L 769.27,646.27 L 769.99,646.24 L 771.16,646.20 L 772.50,646.20 L 772.91,646.21 L 774.16,646.17 L 774.83,646.15 L 776.45,646.03 L 781.75,645.50 L 782.48,645.41 L 783.70,645.25 L 784.27,645.17 L 785.20,645.01 L 786.06,644.84 L 787.08,644.45 L 787.49,644.22 L 787.86,643.57 L 788.02,642.11 L 788.02,642.02 L 788.02,641.34 L 788.03,640.92 L 788.03,639.61 L 788.03,638.88 L 788.04,636.97 L 788.04,635.94 L 788.05,633.46 L 788.05,632.16 L 788.06,629.15 L 788.06,627.58 L 788.07,624.08 L 788.08,622.26 L 788.09,618.29 L 788.09,616.25 L 788.10,611.85 L 788.11,609.60 L 788.12,604.81 L 788.13,602.36 L 788.14,597.21 L 788.15,594.59 L 788.16,589.10 L 788.17,586.32 L 788.18,580.54 L 788.20,574.69 L 788.23,562.26 L 788.27,542.78 L 788.50,446.06 L 792.25,442.41 L 793.28,441.41 L 794.90,439.55 L 795.24,439.13 L 795.70,438.46 L 796.00,437.79 L 796.00,437.61 L 796.17,437.08 L 796.28,436.80 L 796.64,436.12 L 797.03,435.41 L 798.13,433.85 L 798.69,433.09 L 799.82,431.86 L 800.08,431.60 L 800.54,431.23 L 801.07,431.00 L 801.10,431.00 M 403.56,405.24 L 404.25,406.14 L 404.65,406.66 L 405.72,408.13 L 406.29,408.91 L 407.60,410.75 L 408.26,411.69 L 409.66,413.69 L 410.36,414.69 L 411.71,416.65 L 412.36,417.61 L 413.51,419.32 L 414.05,420.13 L 414.87,421.39 L 415.57,422.56 L 415.60,422.63 L 415.67,423.24 L 415.71,423.63 L 415.78,424.84 L 415.81,425.52 L 415.88,427.32 L 415.91,428.29 L 415.98,430.64 L 416.02,431.89 L 416.08,434.77 L 416.12,436.28 L 416.18,439.67 L 416.22,441.43 L 416.28,445.30 L 416.32,447.30 L 416.38,451.63 L 416.41,453.86 L 416.47,458.63 L 416.50,461.06 L 416.56,466.24 L 416.59,468.88 L 416.65,474.44 L 416.68,477.27 L 416.73,483.20 L 416.76,486.20 L 416.81,492.47 L 416.83,495.64 L 416.88,502.21 L 416.90,505.54 L 416.94,512.40 L 417.00,522.99 L 417.50,621.49 L 423.50,622.28 L 425.15,622.50 L 428.18,623.03 L 428.86,623.16 L 429.94,623.40 L 431.00,623.72 L 431.21,623.80 L 431.86,623.98 L 432.22,624.07 L 433.11,624.23 L 436.07,624.58 L 436.56,624.61 L 437.97,624.83 L 438.73,624.96 L 440.50,625.33 L 446.14,626.82 L 447.93,627.37 L 452.18,628.42 L 453.21,628.66 L 455.14,629.06 L 457.57,629.47 L 458.25,629.56 L 460.00,629.87 L 460.92,630.04 L 462.96,630.47 L 469.00,631.98 L 469.89,632.23 L 472.43,632.96 L 473.79,633.34 L 476.97,634.24 L 487.00,637.07 L 488.58,637.52 L 491.75,638.47 L 493.30,638.95 L 496.16,639.90 L 497.53,640.36 L 499.76,641.18 L 500.27,641.37 L 501.10,641.71 L 502.05,642.15 L 503.02,642.66 L 505.42,643.55 L 506.01,643.75 L 507.12,644.06 L 508.55,644.34 L 508.72,644.36 L 509.35,644.54 L 509.70,644.66 L 510.65,645.02 L 511.17,645.22 L 512.41,645.73 L 513.06,646.01 L 514.54,646.66 L 516.08,647.33 L 519.73,649.01 L 521.62,649.89 L 525.72,651.86 L 529.88,653.86 L 538.18,658.05 L 540.14,659.07 L 543.66,660.94 L 548.00,663.37 L 548.62,663.73 L 550.30,664.71 L 551.19,665.23 L 553.23,666.42 L 559.50,670.05 L 560.46,670.61 L 562.34,671.69 L 563.25,672.22 L 564.88,673.16 L 565.65,673.61 L 566.87,674.31 L 568.00,674.97 L 571.00,676.44 L 571.21,676.52 L 571.82,676.82 L 572.15,676.99 L 572.94,677.43 L 575.50,678.98 L 576.32,679.52 L 578.43,680.82 L 581.25,682.50 L 581.91,682.87 L 582.90,683.53 L 583.33,683.84 L 583.83,684.33 L 584.01,684.55 L 583.97,684.82 L 583.25,684.91 L 583.20,684.90 L 582.81,684.75 L 582.58,684.65 L 581.85,684.33 L 581.45,684.15 L 580.43,683.68 L 579.89,683.42 L 578.61,682.82 L 577.27,682.18 L 574.00,680.60 L 572.28,679.77 L 568.50,677.91 L 566.57,676.96 L 562.95,675.16 L 561.20,674.28 L 558.17,672.76 L 557.47,672.41 L 556.24,671.78 L 555.65,671.48 L 554.69,670.98 L 554.24,670.75 L 553.59,670.41 L 553.00,670.08 L 552.65,669.86 L 551.21,669.15 L 550.38,668.75 L 548.15,667.75 L 546.96,667.22 L 544.17,666.02 L 542.72,665.40 L 539.57,664.09 L 536.37,662.76 L 529.83,660.16 L 528.25,659.54 L 525.32,658.43 L 521.50,657.04 L 519.02,656.17 L 513.94,654.24 L 512.76,653.78 L 510.71,652.95 L 508.42,651.96 L 507.86,651.69 L 506.21,651.12 L 505.32,650.83 L 503.21,650.27 L 496.43,648.93 L 495.35,648.78 L 493.31,648.47 L 492.33,648.31 L 490.65,648.03 L 489.87,647.89 L 488.74,647.66 L 487.85,647.41 L 487.71,647.32 L 487.17,647.13 L 486.85,647.04 L 485.95,646.81 L 485.45,646.70 L 484.22,646.45 L 483.56,646.32 L 482.00,646.05 L 481.19,645.91 L 479.33,645.61 L 478.37,645.46 L 476.24,645.14 L 474.05,644.81 L 468.91,644.11 L 466.22,643.76 L 460.23,643.01 L 457.14,642.63 L 450.44,641.85 L 447.02,641.46 L 439.79,640.68 L 428.50,639.51 L 426.31,639.30 L 422.46,638.89 L 420.61,638.69 L 417.42,638.31 L 415.90,638.12 L 413.31,637.75 L 412.09,637.57 L 410.06,637.22 L 409.10,637.04 L 407.57,636.68 L 406.86,636.50 L 405.77,636.13 L 405.28,635.94 L 404.59,635.54 L 403.95,634.92 L 403.92,634.88 L 403.87,634.14 L 403.85,633.67 L 403.80,632.11 L 403.77,631.23 L 403.73,628.91 L 403.70,627.66 L 403.66,624.63 L 403.63,623.03 L 403.59,619.34 L 403.57,617.42 L 403.52,613.14 L 403.50,610.93 L 403.46,606.11 L 403.44,603.64 L 403.40,598.33 L 403.38,595.62 L 403.35,589.88 L 403.33,586.97 L 403.30,580.85 L 403.28,577.76 L 403.25,571.33 L 403.23,568.08 L 403.20,561.39 L 403.17,554.65 L 403.12,540.61 L 403.10,533.54 L 403.06,519.19 L 403.05,512.01 L 403.02,497.79 L 403.01,490.73 L 403.00,477.08 L 403.00,473.73 L 403.00,467.20 L 403.00,463.98 L 403.00,457.75 L 403.01,454.68 L 403.01,448.80 L 403.02,445.92 L 403.03,440.45 L 403.04,437.78 L 403.05,432.78 L 403.06,430.34 L 403.08,425.87 L 403.09,423.70 L 403.12,419.80 L 403.13,417.93 L 403.16,414.66 L 403.17,413.11 L 403.21,410.54 L 403.23,409.34 L 403.27,407.51 L 403.29,406.69 L 403.33,405.66 L 403.40,405.08 M 775.54,410.78 L 775.63,411.44 L 775.67,411.88 L 775.76,413.34 L 775.80,414.17 L 775.88,416.39 L 775.91,417.59 L 775.99,420.50 L 776.02,422.04 L 776.09,425.60 L 776.13,427.45 L 776.19,431.60 L 776.23,433.74 L 776.29,438.41 L 776.32,440.81 L 776.37,445.97 L 776.40,448.60 L 776.45,454.18 L 776.48,457.02 L 776.53,462.97 L 776.55,465.98 L 776.59,472.25 L 776.61,475.42 L 776.65,481.94 L 776.68,488.52 L 776.74,502.23 L 776.77,509.15 L 776.80,523.19 L 776.81,530.22 L 776.83,544.17 L 776.83,551.09 L 776.82,564.50 L 776.81,567.80 L 776.80,574.22 L 776.79,577.40 L 776.77,583.53 L 776.76,586.56 L 776.74,592.36 L 776.72,595.22 L 776.69,600.63 L 776.67,603.28 L 776.64,608.24 L 776.61,610.66 L 776.57,615.12 L 776.55,617.28 L 776.49,621.18 L 776.47,623.06 L 776.41,626.35 L 776.38,627.92 L 776.31,630.54 L 776.28,631.77 L 776.21,633.68 L 776.17,634.54 L 776.09,635.67 L 775.96,636.45 L 775.82,636.59 L 774.75,636.96 L 774.11,637.15 L 772.22,637.57 L 771.20,637.78 L 768.75,638.20 L 764.71,638.78 L 763.36,638.95 L 761.04,639.23 L 759.92,639.37 L 757.91,639.62 L 755.94,639.85 L 752.14,640.28 L 751.14,640.38 L 748.92,640.62 L 747.77,640.74 L 745.10,641.01 L 743.70,641.15 L 740.39,641.48 L 734.50,642.06 L 732.99,642.21 L 729.99,642.52 L 728.52,642.67 L 725.85,642.96 L 724.58,643.10 L 722.53,643.35 L 720.50,643.61 L 720.09,643.68 L 718.74,643.88 L 718.00,643.98 L 716.18,644.24 L 710.00,645.08 L 707.76,645.38 L 703.71,646.00 L 701.73,646.33 L 697.91,647.07 L 696.00,647.47 L 692.03,648.41 L 685.50,650.12 L 683.81,650.59 L 680.65,651.48 L 679.09,651.91 L 676.18,652.74 L 673.32,653.56 L 668.25,655.08 L 665.80,655.82 L 661.36,657.26 L 659.21,657.97 L 655.20,659.40 L 651.25,660.84 L 643.68,664.07 L 641.73,664.93 L 637.65,666.84 L 631.00,670.07 L 628.70,671.21 L 624.65,673.19 L 622.71,674.13 L 619.34,675.74 L 617.74,676.50 L 615.01,677.76 L 613.73,678.34 L 611.61,679.26 L 610.62,679.68 L 609.06,680.28 L 608.35,680.54 L 607.32,680.84 L 606.87,680.95 L 606.32,680.96 L 606.10,680.93 L 606.00,680.67 L 606.00,680.53 L 606.55,679.94 L 606.91,679.59 L 608.02,678.69 L 608.63,678.21 L 610.13,677.12 L 610.91,676.56 L 612.60,675.42 L 613.45,674.85 L 615.14,673.76 L 615.98,673.24 L 617.49,672.35 L 618.21,671.94 L 619.35,671.37 L 620.46,671.00 L 620.51,671.00 L 620.83,670.87 L 621.03,670.79 L 621.63,670.50 L 622.28,670.18 L 624.26,669.14 L 625.34,668.57 L 627.96,667.13 L 632.35,664.68 L 633.88,663.81 L 636.84,662.14 L 638.27,661.32 L 640.81,659.89 L 642.00,659.21 L 643.84,658.17 L 644.25,657.95 L 644.87,657.60 L 645.50,657.24 L 647.65,656.05 L 652.30,653.68 L 654.67,652.50 L 659.70,650.20 L 662.26,649.05 L 667.59,646.84 L 670.29,645.74 L 675.85,643.64 L 681.44,641.58 L 692.97,637.93 L 710.13,633.42 L 712.16,632.96 L 716.07,631.88 L 716.96,631.62 L 718.45,631.13 L 720.00,630.52 L 720.34,630.35 L 721.50,629.99 L 722.14,629.81 L 723.73,629.47 L 729.20,628.68 L 731.04,628.52 L 734.45,627.95 L 735.22,627.80 L 736.47,627.49 L 737.70,627.03 L 737.82,626.96 L 738.32,626.78 L 738.61,626.68 L 739.42,626.45 L 740.30,626.21 L 742.79,625.63 L 744.13,625.33 L 747.31,624.69 L 752.50,623.73 L 765.50,621.47 L 766.50,422.16 L 769.00,419.36 L 769.69,418.59 L 771.21,416.49 L 773.00,413.55 L 773.41,412.72 L 774.35,411.49 L 774.58,411.24 L 774.99,410.92 L 775.50,410.77 Z" fill="rgba(61,64,147,1)"/>
<path d="M 574.56,685.13 L 576.03,685.53 L 576.45,685.65 L 577.48,685.98 L 579.32,686.59 L 580.61,687.03 L 582.63,687.99 L 583.05,688.21 L 583.63,688.62 L 584.00,689.09 L 584.00,689.32 L 583.87,689.62 L 583.76,689.73 L 583.21,689.81 L 582.86,689.82 L 581.64,689.70 L 581.28,689.65 L 580.38,689.53 L 579.90,689.46 L 578.75,689.28 L 577.99,689.17 L 576.81,688.72 L 576.56,688.59 L 576.22,688.33 L 576.00,687.93 L 576.00,687.68 L 575.56,687.27 L 574.50,687.00 L 574.09,687.00 L 573.44,686.71 L 573.00,686.00 L 573.00,685.66 L 573.22,685.26 L 573.38,685.11 L 574.11,685.09 Z" fill="rgba(127,127,255,1)"/>
<path d="M 556.50,652.10 L 552.05,650.34 L 543.55,646.37 L 539.37,644.32 L 531.44,639.81 L 527.55,637.49 L 520.23,632.47 L 516.64,629.89 L 509.95,624.38 L 506.68,621.57 L 500.66,615.60 L 497.74,612.56 L 492.42,606.16 L 489.85,602.91 L 485.27,596.11 L 479.27,585.50 L 477.75,582.46 L 475.12,576.23 L 473.86,573.09 L 471.74,566.66 L 470.75,563.43 L 469.14,556.83 L 468.40,553.51 L 467.30,546.77 L 466.81,543.38 L 466.22,536.50 L 465.99,533.05 L 465.89,526.07 L 465.91,522.56 L 466.32,515.49 L 466.59,511.95 L 467.49,504.81 L 468.01,501.24 L 469.41,494.06 L 470.17,490.46 L 472.06,483.26 L 473.07,479.65 L 475.45,472.44 L 476.70,468.84 L 479.56,461.65 L 481.05,458.06 L 484.40,450.91 L 486.13,447.34 L 489.95,440.25 L 491.92,436.71 L 496.22,429.70 L 503.20,419.29 L 505.94,415.45 L 511.32,408.47 L 512.70,406.74 L 515.61,403.28 L 517.10,401.54 L 520.31,397.95 L 521.96,396.13 L 525.61,392.27 L 527.50,390.29 L 531.70,386.03 L 533.89,383.83 L 538.79,379.01 L 540.06,377.76 L 542.76,375.14 L 547.06,371.00 L 550.41,367.78 L 556.61,361.81 L 559.63,358.90 L 565.20,353.52 L 567.91,350.90 L 572.90,346.05 L 575.32,343.69 L 579.78,339.33 L 581.94,337.21 L 585.91,333.28 L 587.84,331.36 L 591.37,327.82 L 593.08,326.09 L 596.22,322.89 L 597.74,321.32 L 600.54,318.40 L 601.90,316.96 L 604.40,314.27 L 605.62,312.95 L 607.87,310.45 L 610.07,307.98 L 613.93,303.38 L 615.80,301.10 L 619.28,296.58 L 624.51,289.46 L 625.90,287.52 L 628.64,283.38 L 630.00,281.26 L 632.68,276.80 L 634.00,274.54 L 636.59,269.81 L 637.87,267.42 L 640.35,262.48 L 642.79,257.50 L 647.24,247.10 L 653.04,231.26 L 653.60,229.53 L 654.77,225.65 L 655.36,223.64 L 656.55,219.33 L 657.74,214.93 L 660.03,205.54 L 660.58,203.20 L 661.62,198.56 L 662.12,196.27 L 663.02,191.86 L 663.45,189.70 L 664.19,185.67 L 665.06,180.25 L 665.22,179.12 L 665.57,177.05 L 665.74,176.06 L 666.08,174.42 L 666.25,173.68 L 666.54,172.65 L 666.89,172.00 L 666.98,172.00 L 667.26,172.55 L 667.41,172.91 L 667.80,174.13 L 668.00,174.81 L 668.48,176.62 L 668.73,177.59 L 669.29,179.93 L 669.58,181.15 L 670.20,183.93 L 670.52,185.37 L 671.19,188.52 L 671.54,190.14 L 672.25,193.60 L 672.61,195.36 L 673.34,199.05 L 674.08,202.78 L 675.56,210.63 L 676.29,214.57 L 677.67,222.40 L 678.34,226.26 L 679.51,233.48 L 679.78,235.22 L 680.27,238.49 L 680.90,243.00 L 681.21,245.35 L 681.70,250.63 L 681.93,253.35 L 682.26,259.15 L 682.55,265.04 L 682.65,277.25 L 682.64,280.25 L 682.49,286.02 L 682.39,288.85 L 682.09,294.09 L 681.91,296.62 L 681.45,301.05 L 681.32,302.10 L 681.04,303.99 L 680.58,306.50 L 679.59,311.06 L 677.10,319.66 L 675.77,323.89 L 672.54,331.94 L 670.82,335.90 L 666.81,343.48 L 659.84,354.48 L 659.06,355.58 L 657.41,357.77 L 656.55,358.89 L 654.57,361.28 L 653.52,362.52 L 650.99,365.35 L 650.31,366.09 L 648.81,367.70 L 648.04,368.53 L 646.32,370.33 L 645.44,371.25 L 643.48,373.27 L 642.47,374.31 L 640.24,376.57 L 639.09,377.74 L 636.56,380.27 L 635.26,381.58 L 632.41,384.42 L 630.94,385.89 L 627.73,389.06 L 626.08,390.70 L 622.49,394.24 L 620.65,396.06 L 616.65,399.99 L 610.15,406.36 L 607.79,408.68 L 603.26,413.26 L 601.04,415.53 L 596.79,420.01 L 594.70,422.25 L 590.72,426.65 L 588.77,428.84 L 585.06,433.17 L 583.24,435.32 L 579.80,439.58 L 578.11,441.70 L 574.92,445.89 L 571.80,450.07 L 566.33,458.27 L 563.71,462.34 L 559.23,470.37 L 557.11,474.36 L 553.58,482.27 L 551.93,486.21 L 549.32,494.04 L 546.42,505.75 L 546.16,507.11 L 545.75,510.00 L 545.57,511.47 L 545.30,514.55 L 545.07,517.66 L 545.04,524.11 L 545.10,527.33 L 545.63,533.55 L 545.79,535.07 L 546.23,537.96 L 547.04,542.00 L 547.33,543.23 L 548.11,545.87 L 548.53,547.21 L 549.53,550.03 L 550.57,552.87 L 553.15,558.71 L 554.50,561.60 L 557.44,567.02 L 558.19,568.31 L 559.69,570.71 L 561.92,573.93 L 566.00,579.36 L 566.00,617.18 L 566.00,619.03 L 566.00,622.49 L 565.99,624.17 L 565.99,627.31 L 565.98,628.84 L 565.97,631.67 L 565.96,633.05 L 565.94,635.58 L 565.93,636.82 L 565.91,639.07 L 565.89,640.17 L 565.86,642.16 L 565.83,644.08 L 565.74,647.19 L 565.69,648.62 L 565.58,650.82 L 565.51,651.82 L 565.36,653.23 L 565.28,653.84 L 565.08,654.55 L 564.75,654.94 L 564.58,654.93 L 563.71,654.70 L 563.21,654.55 L 561.81,654.08 L 561.06,653.83 L 559.32,653.19 L 558.42,652.85 M 617.00,623.04 L 617.00,592.08 L 624.41,586.60 L 626.24,585.25 L 629.47,582.43 L 631.01,581.01 L 633.67,578.04 L 634.93,576.55 L 637.02,573.44 L 639.51,568.64 L 639.60,568.41 L 639.85,567.71 L 639.98,567.33 L 640.28,566.36 L 640.60,565.33 L 641.36,562.64 L 641.76,561.21 L 642.61,557.98 L 643.87,552.90 L 644.48,550.33 L 645.62,545.87 L 646.18,543.73 L 647.29,539.93 L 647.85,538.09 L 649.06,534.70 L 649.69,533.03 L 651.11,529.80 L 651.86,528.18 L 653.60,524.87 L 654.53,523.17 L 656.71,519.52 L 657.87,517.63 L 660.61,513.39 L 661.34,512.28 L 662.91,509.91 L 665.48,506.10 L 666.89,504.01 L 669.45,500.04 L 670.68,498.09 L 672.90,494.36 L 673.97,492.52 L 675.87,488.98 L 676.79,487.22 L 678.41,483.79 L 679.96,480.39 L 682.33,473.68 L 684.98,463.34 L 685.18,462.34 L 685.52,460.64 L 685.69,459.84 L 685.98,458.51 L 686.12,457.88 L 686.37,456.87 L 686.49,456.40 L 686.71,455.67 L 686.92,455.00 L 687.32,454.34 L 687.99,454.00 L 688.06,454.00 L 688.29,454.21 L 688.42,454.35 L 688.76,454.82 L 689.12,455.35 L 690.11,457.06 L 690.64,458.00 L 691.88,460.38 L 692.52,461.63 L 693.90,464.45 L 695.30,467.34 L 698.07,473.50 L 698.72,475.00 L 699.88,477.82 L 701.31,481.54 L 701.65,482.51 L 702.50,485.22 L 702.94,486.67 L 703.90,490.03 L 706.62,500.54 L 706.95,501.93 L 707.49,504.34 L 707.75,505.50 L 708.16,507.62 L 708.55,509.70 L 709.01,513.80 L 709.10,514.89 L 709.23,517.30 L 709.29,518.56 L 709.36,521.47 L 709.39,523.00 L 709.41,526.60 L 709.42,533.00 L 709.42,535.78 L 709.36,540.69 L 709.31,543.06 L 709.14,547.29 L 709.04,549.33 L 708.74,553.06 L 708.57,554.88 L 708.10,558.28 L 707.59,561.64 L 705.96,568.16 L 705.50,569.84 L 704.38,573.37 L 702.40,579.11 L 701.03,582.93 L 697.75,590.25 L 696.02,593.86 L 692.04,600.72 L 689.97,604.09 L 685.32,610.46 L 682.92,613.59 L 677.63,619.46 L 674.90,622.32 L 668.99,627.65 L 665.96,630.25 L 659.46,635.01 L 656.14,637.32 L 649.07,641.50 L 637.85,647.07 L 635.77,647.98 L 631.56,649.69 L 629.50,650.51 L 625.71,651.90 L 624.81,652.22 L 623.18,652.77 L 622.40,653.03 L 621.04,653.43 L 620.41,653.61 L 619.40,653.85 L 618.34,654.00 L 618.21,654.00 L 617.97,653.71 L 617.86,653.50 L 617.67,652.71 L 617.58,652.25 L 617.44,650.86 L 617.37,650.08 L 617.26,647.99 L 617.21,646.84 L 617.14,643.93 L 617.10,642.36 L 617.06,638.53 L 617.05,637.51 L 617.03,635.27 L 617.02,634.12 L 617.01,631.62 L 617.01,630.33 L 617.00,627.55 L 617.00,626.12 M 631.71,533.63 L 630.62,529.06 L 628.81,520.52 L 627.96,516.35 L 626.64,508.54 L 626.03,504.72 L 625.19,497.57 L 624.83,494.07 L 624.46,487.50 L 624.34,484.29 L 624.45,478.23 L 624.56,475.25 L 625.15,469.62 L 625.50,466.86 L 626.55,461.59 L 628.66,454.00 L 629.35,451.91 L 630.87,448.08 L 631.69,446.16 L 633.74,442.13 L 634.30,441.07 L 635.60,438.80 L 636.28,437.63 L 637.84,435.06 L 638.65,433.73 L 640.53,430.78 L 643.74,425.81 L 645.19,423.59 L 647.72,419.46 L 648.93,417.44 L 651.01,413.62 L 651.99,411.74 L 653.65,408.13 L 654.43,406.34 L 655.70,402.83 L 656.29,401.08 L 657.20,397.57 L 657.62,395.81 L 658.23,392.20 L 658.49,390.38 L 658.81,386.56 L 659.02,380.50 L 659.02,379.02 L 659.05,376.62 L 659.08,375.52 L 659.18,373.91 L 659.26,373.20 L 659.51,372.41 L 659.66,372.12 L 660.13,372.19 L 660.40,372.34 L 661.14,373.30 L 661.56,373.90 L 662.65,375.79 L 662.94,376.33 L 663.61,377.57 L 663.96,378.23 L 664.74,379.72 L 665.15,380.50 L 666.04,382.24 L 667.52,385.14 L 669.14,388.29 L 671.91,394.18 L 673.21,397.05 L 675.37,402.44 L 676.38,405.08 L 677.95,410.06 L 678.66,412.51 L 679.67,417.17 L 680.10,419.47 L 680.54,423.91 L 680.70,426.11 L 680.60,430.41 L 680.49,432.55 L 679.88,436.80 L 678.39,443.23 L 678.29,443.59 L 677.83,444.83 L 677.56,445.52 L 676.79,447.37 L 676.37,448.35 L 675.34,450.71 L 674.80,451.95 L 673.54,454.74 L 672.89,456.18 L 671.45,459.31 L 670.71,460.91 L 669.13,464.29 L 664.01,475.00 L 662.30,478.51 L 659.21,485.05 L 657.71,488.24 L 655.00,494.19 L 653.69,497.11 L 651.34,502.58 L 650.20,505.27 L 648.17,510.36 L 647.19,512.86 L 645.43,517.65 L 644.58,520.01 L 643.07,524.59 L 639.27,538.03 L 638.90,539.54 L 638.18,542.29 L 637.82,543.60 L 637.19,545.78 L 636.89,546.77 L 636.42,548.13 L 636.31,548.41 L 636.15,548.78 L 635.97,549.00 L 635.93,549.00 L 635.77,548.69 L 635.69,548.48 L 635.45,547.79 L 635.32,547.40 L 635.01,546.37 L 634.84,545.81 L 634.47,544.49 L 634.08,543.09 L 633.17,539.60 L 632.71,537.76 Z" fill="rgba(234,49,54,1)"/>
</g>
</svg>